<?xml version="1.0" encoding="UTF-8"?>
<svg id="Layer_2" data-name="Layer 2" xmlns="http://www.w3.org/2000/svg" viewBox="0 0 360 360">
  <defs>
    <style>
      .cls-1 {
        fill: #131313;
        stroke: #131313;
      }

      .cls-1, .cls-2 {
        stroke-miterlimit: 10;
      }

      .cls-2, .cls-3 {
        fill: #ffbd23;
        stroke: #ffbd23;
      }

      .cls-3 {
        stroke-linecap: round;
        stroke-linejoin: round;
      }
    </style>
  </defs>
  <g id="Wordmark_4" data-name="Wordmark 4">
    <path class="cls-1" d="M123.61,237.55c-3.59-23.6-7.64-98.64-8.54-111.67-.89-13.04-4.27-68.31-20.89-68.98-16.63-.68-23.91-.48-39.82,14.26,0,0-11.48,10.44-19.73,76.77-8.24,66.31-13.34,67.89-14.13,75.73-.79,7.85-4.32,38.85,25.12,35.32,14.91-2.56,15.75-17.83,16.42-36.25.68-18.42-1.34-35.95,12.81-35.73,14.16.23,14.38,3.6,14.83,16.18.45,12.58.68,38.65,1.13,44.04s-2.03,15.96,16.18,14.16c18.2-1.8,20.22-.23,16.62-23.81ZM89.23,154.64c-.23,6.52-12.81,4.5-12.81,4.5-4.49-.3-10.78,1.79-10.56-8.77.68-28.99,4.04-38.65,6.66-48.54,2.62-9.88,8.4-15.28,12.67-1.13,4.27,14.16,4.27,47.41,4.04,53.93Z"/>
    <path class="cls-2" d="M129.9,78.49s2,99.15,3.66,126.77c1.66,27.62-2.99,35.93,15.31,36.6s30.28,4.66,30.94-6.99-6.32-9.65-19.3-9.65-9.65-9.32-9.65-26.95,2.71-55.9,4.01-87.51c1.31-31.61,1.64-36.27,1.97-40.59s4.66-15.31-11.98-15.31-15.31,7.67-14.97,23.62Z"/>
    <path class="cls-3" d="M149.53,265.81s9.98-4.99,0-7.99-16.97,9.65-14.31,15.97c2.66,6.32,8.19.33,9.09,0,.89,1.33,12.19,33.6,40.98,34.27s41.1-34.94,41.1-34.94c0,0,5.66,7.65,8.32,0s-6.65-13.64-7.99-14.31-13.97-4.99-10.65,6.32c.86,1.31,2.54,1.21,2.54,1.21,0,0-7.57,24.07-29.95,26.91-22.39,2.84-36.43-17.8-39.13-27.45Z"/>
    <path class="cls-2" d="M200.29,184.37s.26,43,1.28,48.37-1.28,12.29,17.92,11.52c9.47.06,10.27-4.55,10.49-8.3s.23-5.23-8.18-5c-4.32.23-6.9,1.02-6.63-7.16.04-2.61-.64-7.39,7.54-7.5,8.18-.11,11.25-.91,11.7-6.59.45-5.68-1.36-7.39-7.61-7.61s-11.36,1.59-10.68-7.05c.68-8.64,1.02-8.64,10-8.75,8.98-.11,12.95,1.92,12.95-6.37s-2.61-10.11-15.45-10-23.47-.07-23.32,14.43Z"/>
    <path class="cls-1" d="M249.67,88.95s14.08,41.67,15.39,46.75,4.5,9.87-1.89,27.73c-6.39,17.86-26.86,72.45-27.15,78.7-.29,6.24-2.51,20.17,11.8,20.25s15.44.35,24.31-22.82c8.86-23.17,10.27-27.38,11.41-30.36s3.42-12.02,6.93-2.63,14.57,40.81,19.04,46.6c4.48,5.79,16.23,13.16,23.17,5s9.57-14.74,5.97-22.9-21.15-49.14-24.75-59.06-7.55-19.31-7.81-20.36-1.32-3.51,2.11-10.53,18.78-41.16,22.82-48.7c4.04-7.55,6.84-22.82-1.76-30.54-8.6-7.72-20.97-3.69-26.33,8.6-5.35,12.29-9.48,23.43-10.97,30.63-1.49,7.2-4.12.97-5.62-4.83-1.49-5.79-6.41-32.97-10.88-38.34-4.48-5.36-10.79-7.03-21.85-1.68s-7.15,18.93-3.94,28.48Z"/>
  </g>
</svg>